<svg xmlns="http://www.w3.org/2000/svg" width="17" height="19" viewBox="0 0 17 19"><path fill="#000" fill-rule="evenodd" d="M299.875 576.212c0 .552-.476.788-1.063.788h-1.062c-.587 0-1.063-.236-1.063-.788v-1c0-1.105-.95-2.212-2.125-2.212h-2.125c-1.174 0-2.125 1.107-2.125 2.212v1c0 .552-.476.788-1.062.788h-1.063c-.586 0-1.062-.236-1.062-.788v-8.063c0-.133.056-.26.155-.354l5.458-5.136a1.109 1.109 0 0 1 1.503 0l5.479 5.156a.488.488 0 0 1 .155.353v8.044zm2.125-8.587a.974.974 0 0 0-.31-.706l-6.692-6.33a2.221 2.221 0 0 0-3.007-.006l-6.679 6.265a.972.972 0 0 0-.312.708v9.656c0 1.105.95 1.788 2.125 1.788h3.188c1.174 0 2.125-.683 2.125-1.788v-1c0-.552.476-1 1.062-1 .587 0 1.063.448 1.063 1v1c0 1.105.95 1.788 2.125 1.788h3.187c1.174 0 2.125-.683 2.125-1.788v-9.587z" transform="translate(-285 -560)"/></svg>