<svg xmlns="http://www.w3.org/2000/svg" width="16" height="16"><path style="line-height:normal;text-indent:0;text-align:start;text-decoration-line:none;text-decoration-style:solid;text-decoration-color:#000;text-transform:none;block-progression:tb;white-space:normal;isolation:auto;mix-blend-mode:normal;solid-color:#000;solid-opacity:1" d="M8 1a1 1 0 0 0-1 1H5v1H3.5a.5.5 0 0 0-.5.5v11a.5.5 0 0 0 .5.5h9a.5.5 0 0 0 .5-.5v-11a.5.5 0 0 0-.5-.5H11V2H9a1 1 0 0 0-1-1zM4 4h1v1h6V4h1v10H4V4zm1.5 2a.5.5 0 0 0-.5.5.5.5 0 0 0 .5.5.5.5 0 0 0 .5-.5.5.5 0 0 0-.5-.5zM7 6v1h4V6H7zM5.5 8a.5.5 0 0 0-.5.5.5.5 0 0 0 .5.5.5.5 0 0 0 .5-.5.5.5 0 0 0-.5-.5zM7 8v1h4V8H7zm-1.5 2a.5.5 0 0 0-.5.5.5.5 0 0 0 .5.5.5.5 0 0 0 .5-.5.5.5 0 0 0-.5-.5zM7 10v1h4v-1H7zm-1.5 2a.5.5 0 0 0-.5.5.5.5 0 0 0 .5.5.5.5 0 0 0 .5-.5.5.5 0 0 0-.5-.5zM7 12v1h4v-1H7z" color="#000" enable-background="accumulate" font-family="sans-serif" font-weight="400" overflow="visible"/></svg>